<svg xmlns="http://www.w3.org/2000/svg" viewBox="0 0 120 120" width="120" height="120">
<defs><linearGradient id="g" x1="0" y1="0" x2="1" y2="1"><stop offset="0" stop-color="#C8602E"/><stop offset="1" stop-color="#6B3A22"/></linearGradient></defs>
<rect width="120" height="120" fill="url(#g)"/>
<path d="M18 120c2-24 20-36 42-36s40 12 42 36z" fill="#3F5566"/>
<rect x="52" y="66" width="16" height="20" rx="6" fill="#E7C3A0"/>
<ellipse cx="60" cy="54" rx="19" ry="22" fill="#E7C3A0"/>
<path d="M40 56c-4-22 10-32 22-32 14 0 24 10 20 30-2-10-8-16-20-16-10 0-18 6-22 18z M40 52c-6 16-4 30 2 36l6-2c-6-10-6-22-8-34z M80 52c6 16 4 30-2 36l-6-2c6-10 6-22 8-34z" fill="#2A1F1A"/>
</svg>
